<svg xmlns="http://www.w3.org/2000/svg" xmlns:xlink="http://www.w3.org/1999/xlink" width="200" height="52"><style><![CDATA[.B{stroke:#41294a}.C{stroke-width:.503}]]></style><defs><linearGradient x1="94.6281411%" y1="83.1658045%" x2="-0.97725161%" y2="3.33066907e-14%" id="A"><stop stop-color="#fa357b" offset="0%"/><stop stop-color="#ff6969" offset="100%"/></linearGradient><path id="B" d="M26.76 20.372v-.007l14.155.006-1.52 2.677-14.157-.005v.007l-8.31-.004-1.52-2.678 2.997.001z"/></defs><g fill-rule="evenodd"><g fill="url(#A)"><path d="M154.277 36.373l.234-.31c.078-.103.118-.223.12-.36l-.274.34-.285.377c-.144.136-.16.258-.05.368a.62.62 0 0 1-.157.066c-.05.014-.085.038-.103.075a1.48 1.48 0 0 0-.155.254l-.137.252-.218.418a.54.54 0 0 1-.344.283c-.024.22-.106.38-.244.474s-.262.208-.37.338c.06.014.112.018.152.012s.09-.036.153-.09.145-.144.25-.268l.42-.534c.048.005.09.004.123-.001a.53.53 0 0 1 .124-.001c.008-.024.012-.04.01-.045s.003-.02.01-.044c-.027-.02-.078-.046-.154-.08.05-.053.1-.102.118-.146s.064-.08.107-.1c.085-.058.138-.115.16-.17s-.01-.12-.093-.2a.75.75 0 0 0 .167-.17.28.28 0 0 1 .141-.115c.146-.044.25-.122.308-.234s.054-.237-.014-.375zm-2.372 2.78a3.4 3.4 0 0 1 .292-.282 3.39 3.39 0 0 0 .292-.282c-.13-.033-.25.003-.355.108s-.182.257-.23.455zm.195-1.14c-.01.025-.013.048-.008.07s-.007.042-.033.056a.88.88 0 0 1-.147.131l-.17.116c-.002-.01-.007-.02-.015-.024s-.013-.013-.015-.024l.1-.16c.032-.056.073-.105.123-.146.024-.026.05-.035.08-.028s.06.01.087.007zm-.937.714c.152-.18.27-.197.353-.047l-.372.227a3.34 3.34 0 0 0-.37.247l-.018-.017c-.01.002-.017-.004-.018-.017a.84.84 0 0 0 .104-.082 1.39 1.39 0 0 1 .162-.145.8.8 0 0 0 .16-.165zm-5.213 5.79c.048.018.127-.006.237-.07l.353-.224a3.16 3.16 0 0 0 .331-.258c.096-.087.152-.157.167-.21-.022.004-.038.01-.05.018s-.026.014-.048.018l-.584.34a4.32 4.32 0 0 0-.548.353l-.134.138.008.056c.002.012.01.024.02.035.033-.006.063-.014.1-.025l.104-.047.052-.124zm-.08-.944c-.083-.018-.132-.013-.145.014s-.03.147-.05.36c.04-.01.098-.034.176-.076l.003-.147c-.001-.048.004-.098.015-.15zm-.974.663c.097.116.2.125.34.025s.21-.268.246-.506l-.284.24-.3.242zm-1.76.638a.38.38 0 0 0 .076-.02l.125-.045c-.05-.027-.087-.05-.108-.07s-.042-.028-.066-.025c-.06-.002-.12.013-.186.045a.03.03 0 0 0-.029.039l.008.05.18.025zm13.4-13.293l.037.868a3.76 3.76 0 0 1-.066.884l-.127.72-.16.725a.69.69 0 0 1-.084.194.69.69 0 0 0-.084.194c-.05.284-.13.553-.237.805l-.333.75-.204.333a1.01 1.01 0 0 1-.246.288c-.054.03-.09.094-.112.19s-.053.187-.1.274l-.27.412a4.29 4.29 0 0 0-.268.43c-.124.26-.267.5-.43.687l-.475.625-.347.372-.335.336-.362.39c-.12.128-.255.248-.4.363l-.61.558-.663.55-.427.366c-.14.12-.28.253-.422.4-.05.054-.095.107-.134.158s-.102.06-.19.028c-.023.003-.042.03-.058.078-.087.117-.18.2-.278.25l-.29.164c-.087.048-.166.106-.237.174l-.232.208-.073.097c-.03.04-.055.06-.078.064a.77.77 0 0 0-.411.243c-.115.127-.242.235-.38.325-.094.072-.188.132-.28.18s-.203.07-.333.067c-.095-.01-.2.022-.284.094s-.2.14-.32.203l-.433.333c-.142.107-.307.193-.497.256a.56.56 0 0 1-.23.051 1.49 1.49 0 0 0-.218.015 1.38 1.38 0 0 1-.207.082 1.94 1.94 0 0 0-.224.085c-.01.002-.022.006-.033.014s-.02.012-.033.014c-.262-.03-.423.11-.48.418-.014.06-.055.097-.123.114s-.123-.002-.166-.053l-.013-.085a.8.8 0 0 0-.119-.259c-.052-.073-.147-.1-.285-.078a.41.41 0 0 1-.262-.048 2.06 2.06 0 0 0-.256-.118c-.2-.086-.35-.174-.445-.264l.054-.103c.02-.032.037-.066.054-.104a1.17 1.17 0 0 1-.136-.084c-.04-.03-.08-.052-.116-.07-.128-.073-.23-.17-.31-.293a3.18 3.18 0 0 0-.245-.337c-.07-.082-.118-.156-.14-.222a1.27 1.27 0 0 1-.049-.201l-.025-.222c-.006-.08-.023-.17-.05-.27a1.32 1.32 0 0 1-.038-.533l.057-.6.048-.146c.016-.05.014-.1-.006-.156l-.027-.23c-.005-.074.027-.15.096-.23.02-.026.026-.062.02-.107a1.5 1.5 0 0 1 .06-.469c.043-.14.106-.28.2-.42a.67.67 0 0 0 .093-.256 1.18 1.18 0 0 1 .087-.29c.013-.07.064-.154.155-.248l-.03.377c-.016.123-.063.237-.14.34-.02.026-.03.048-.034.066a.39.39 0 0 1-.017.063l.12-.018a1.2 1.2 0 0 0 .159-.11l-.017.12-.016.123c-.01.014-.014.024-.013.03s-.008.023-.027.05c.132.096.14.233.028.41-.043.1-.076.193-.097.283l-.08.28c-.01.083.004.138.043.167.055.05.075.107.062.172s-.032.135-.056.208c-.008.024-.016.045-.025.064s-.005.04.01.06c.054.12.078.237.072.353l-.017.35c.013.16.066.258.16.296s.194.06.3.068a1.81 1.81 0 0 0 .45.019l.46-.034c.13.004.198-.082.206-.256l.14-1.492.134-.894.15-.897.072-.556.092-.542c.027-.2.065-.393.112-.58l.13-.58.096-.577.095-.577.206-.827.105-.457.102-.474.08-.453.08-.453.03-.324c.014-.1.036-.204.066-.313-.002-.16.04-.31.124-.443s.204-.23.36-.287c.023-.003.037-.008.042-.015s.02-.006.044.002l.36.007.38.004c.118.006.225.035.322.1s.18.118.25.188c.027.02.06.026.1.02s.073.001.1.02a1.38 1.38 0 0 1 .168.234l.134.24c.05.096.07.195.063.293s-.032.2-.072.33a.94.94 0 0 0-.062.338c0 .115-.02.24-.057.372l-.124.45-.127.434-.12.425c-.043.14-.07.28-.085.42-.04.133-.092.242-.16.327a1.7 1.7 0 0 1-.228.233c-.017.026-.032.045-.045.06a.24.24 0 0 0-.042.076c.07.048.108.1.116.156s.005.115-.012.175l-.042.188c-.012.066-.001.13.032.195-.17-.033-.27-.018-.3.045s-.05.152-.056.268c.012.08.008.132-.01.157-.14.24-.22.506-.246.798-.044.1-.08.2-.112.302l-.092.317-.128.538-.066.425-.07.41-.052.12c-.017.043-.035.077-.054.103a.81.81 0 0 0-.274.448 3.43 3.43 0 0 1-.158.517l-.058.25-.058.25c.004.023.005.05.003.077s.004.05.018.058c.03.042.07.04.123-.001l.804-.43.8-.465.843-.523.835-.575.824-.642.8-.7.67-.567.63-.595.97-.958c.318-.336.617-.692.9-1.068l.68-1 .706-1.066a7.2 7.2 0 0 0 .433-.956l.35-1.03a10.56 10.56 0 0 0 .213-1.13l.093-1.113c.01-.163-.006-.307-.05-.434a2.27 2.27 0 0 0-.162-.365 1.03 1.03 0 0 0-.365-.43l-.47-.31a3.68 3.68 0 0 0-.386-.219 2.04 2.04 0 0 0-.41-.147l-.365-.032-.328-.02c-.484-.02-.974.015-1.47.106a12.1 12.1 0 0 0-1.465.365 3.13 3.13 0 0 0-.466.173l-.43.185-.57.232-.554.23c-.056.02-.108.042-.157.067l-.154.083-.63.414-.634.397-.516.302-.487.263c-.423.224-.794.21-1.114-.042-.09-.045-.135-.075-.137-.092s-.038-.055-.106-.114a.53.53 0 0 1-.095-.159c-.02-.054-.008-.125.037-.213.026-.062.025-.102-.001-.12-.117-.074-.154-.16-.11-.252s.09-.172.14-.237l.398-.44a1.57 1.57 0 0 1 .448-.344l.988-.554 1.007-.54.937-.425.98-.38.947-.306.937-.252c.694-.138 1.378-.148 2.053-.03l.46.13a1.95 1.95 0 0 1 .475.232c.106.077.225.13.36.163s.27.073.405.12l.246.1.207.1a1.32 1.32 0 0 1 .194.118c.066.048.14.118.226.21a1.36 1.36 0 0 1 .232.424c.037.127.11.28.22.46a1.06 1.06 0 0 0 .192.335c.086.103.15.214.192.335l.162.313c.058.112.077.216.057.312-.072.218-.072.406-.001.562a1.57 1.57 0 0 1 .131.509z"/><path d="M162.967 27.817a.84.84 0 0 1-.008.519c-.057.158-.15.316-.277.473-.066.102-.142.197-.228.284s-.167.183-.245.287a.74.74 0 0 0-.172.25l-.115.276c-.036.144-.117.225-.242.243a.38.38 0 0 0-.136.141 1.54 1.54 0 0 0-.094.186l-.134.27c-.046.082-.117.147-.215.197-.042.03-.07.074-.085.133-.074.127-.14.196-.195.21s-.136-.01-.24-.077c-.203-.108-.346-.276-.427-.506a1.21 1.21 0 0 1-.038-.702l.455-1.31.472-1.314c.028-.12.074-.242.136-.366.057-.158.127-.255.21-.3s.236-.04.46-.017l-.085.073-.068.07c.043.052.07.07.08.057.132-.054.25-.078.356-.07a.57.57 0 0 1 .319.142l.077.1a.18.18 0 0 1 .04.089c.02.055.038.095.054.122s.055.058.12.094a.54.54 0 0 1 .162.2c.042.086.063.163.062.232m-4.544 11.145c.06-.01.095-.08.102-.21a.94.94 0 0 0-.051-.366c-.2.087-.31.15-.33.186s-.004.105.047.205c.02.05.053.092.1.125s.09.052.13.06m-.286.574c.1.005.16-.006.18-.032s.018-.058-.012-.095c.007-.017.003-.028-.015-.034s-.04-.015-.063-.03c-.025.035-.043.067-.054.096l-.038.094m.015-.242c.06-.01.1-.03.12-.063s.03-.068.03-.104l.002-.11c0-.036.01-.074.03-.113-.1-.01-.163-.024-.2-.044a1.25 1.25 0 0 1-.235-.091l-.023.085-.02.102-.11.468-.088.5-.054.487-.05.504c-.008.025-.004.052.012.08l.048.074a.77.77 0 0 1 .085-.049c.034-.017.05-.037.046-.06a.4.4 0 0 1 .043-.259c.043-.078.05-.164.025-.256-.018-.034-.012-.08.015-.138a1.45 1.45 0 0 0 .067-.164c.08-.108.126-.175.134-.2l-.122-.135c-.036-.037-.056-.067-.06-.09a2.24 2.24 0 0 1 .084-.292c.034-.095.057-.186.068-.272a.35.35 0 0 1 .076.079c.023.033.048.053.074.06m-.274 2.008c.007-.035 0-.07-.02-.11l-.06-.12-.046.135c-.012.042-.03.08-.05.118l.003.017-.053.722a1.92 1.92 0 0 0 .106.718c.015.01.001.046-.04.11-.04-.075-.074-.154-.1-.237s-.07-.166-.124-.25c-.02-.032-.022-.07-.01-.11s.022-.083.028-.124 0-.078-.02-.1-.064-.06-.135-.086l.074.765.113.76a.68.68 0 0 0 .074.137c.026.037.05.077.07.12.103-.094.138-.18.105-.255l-.1-.23a.47.47 0 0 1-.006-.146c.006-.04.038-.088.095-.142.08-.068.122-.14.122-.214s-.033-.148-.098-.22c.016-.06.042-.118.08-.174s.05-.107.043-.152c-.042-.087-.067-.175-.076-.266a.62.62 0 0 1 .041-.281c.034-.108.025-.233-.026-.376m-.5-.04l-.01.183-.01.183c.034-.005.076 0 .125.018l.005-.345c-.002-.012-.015-.02-.038-.022a.32.32 0 0 1-.072-.017m2.513-8.92c.176.067.327.16.452.28l.376.36.092.134a.26.26 0 0 1 .042.158l.007.39a1.52 1.52 0 0 1-.04.431c-.078.185-.166.36-.265.525s-.182.34-.248.522l-.142.515-.16.518c-.005.047-.015.098-.03.152l-.044.17a.71.71 0 0 0-.083.212c-.018.078-.05.15-.1.214a1.52 1.52 0 0 1-.151.404l-.132.236c-.043.07-.033.152.03.247.028.03.027.083-.002.157s-.072.126-.127.157c-.112.12-.13.24-.052.355.072.082.072.14 0 .173s-.12.082-.147.143c.026.02.046.03.06.035l.056.018-.086.195c-.03.068-.058.145-.08.228a4.43 4.43 0 0 0-.197.567.59.59 0 0 0-.028.16c-.003.06.01.103.038.133.074.093.094.188.062.286-.06.078-.08.163-.067.253l-.008.175c-.005.047-.05.1-.135.16-.01.013-.01.045-.003.096s.022.104.042.158c-.05.066-.08.122-.09.17s.02.108.1.178a.38.38 0 0 1-.003.096c-.006.042-.005.085.002.13l-.003.78a.81.81 0 0 0-.15.005.56.56 0 0 1-.133.002c.003.023.002.037-.002.044s-.006.015-.005.026c.038.018.08.032.122.043l.14.04c-.01.094-.005.198.012.3a.54.54 0 0 1-.086.36c-.02.026-.024.058-.012.097s.014.07.006.095l-.008.123c-.001.035-.01.065-.03.09-.092.095-.12.18-.085.255l.11.244.07.172a.73.73 0 0 1 .057.191c.048.155-.008.215-.168.18a2.66 2.66 0 0 1-.637-.209c-.192-.093-.33-.255-.413-.485a6.36 6.36 0 0 0-.204-.629 2.55 2.55 0 0 1-.155-.654l-.073-1.1c-.016-.368-.01-.74.014-1.112-.007-.196-.003-.378.013-.548l.048-.554.09-.56.088-.577.22-1.22.254-1.226.236-.946.253-.948.225-.84.19-.835c.008-.024.02-.055.04-.093s.038-.058.062-.06c.356-.076.684-.06.985.045"/><path d="M170.127 41.524l.05-.178a.86.86 0 0 0 .03-.175c.01-.024-.008-.042-.05-.054a.41.41 0 0 1-.11-.046c-.057.064-.1.132-.126.204-.035.108-.064.214-.085.32l-.062.334-.083.216c-.028.072-.05.143-.064.214a.47.47 0 0 0 .112.054.64.64 0 0 0 .058-.076c.016-.025.035-.05.058-.076l.14-.36.136-.377zm-.138 1.274c-.072-.003-.136-.001-.192.006a.92.92 0 0 1-.171.004l.035.18.167-.028a1.95 1.95 0 0 1 .188-.03l-.026-.132zm-.43.643c.04-.03.08-.058.123-.083l.14-.086c-.1-.068-.193-.098-.28-.1s-.15.045-.186.11a2.4 2.4 0 0 0-.113.389c-.026.13-.07.255-.132.374-.042.103-.068.216-.078.34s-.072.228-.182.32a.49.49 0 0 0 .157-.017l.152-.052c.17-.064.266-.122.286-.173s.002-.163-.055-.334c.1-.077.17-.187.205-.332s.024-.266-.035-.365zm-1.49 2.04l-.092.164-.103.184c.1.04.155.046.17.018s.023-.15.025-.367zm.966.1a3.29 3.29 0 0 0 .11-.344l.092-.34c-.156 0-.277.027-.365.082a.8.8 0 0 0-.221.201c-.06.08-.112.17-.156.272a1.39 1.39 0 0 1-.156.271c.038.018.07.036.098.056s.053.033.078.04l-.16.122a.33.33 0 0 0-.119.151c-.065.116-.112.235-.14.357s-.002.26.08.413l.008.052c.002.012-.003.018-.015.02l-.173-.036c-.054-.01-.09-.001-.11.026a1.03 1.03 0 0 0-.182.311c-.042.113-.03.234.037.366a.38.38 0 0 0 .08.121c.034.036.064.052.086.05.036.006.076-.006.118-.036s.073-.058.093-.085a2.92 2.92 0 0 0 .167-.353l.15-.35c.055-.103.075-.188.058-.257s-.078-.142-.183-.22c.02-.015.05-.02.086-.013s.066.008.09.004c.037.006.076.006.116 0s.07-.023.09-.05.03-.057.03-.093a.68.68 0 0 1 .011-.108.27.27 0 0 0 .028-.11c.001-.036.01-.067.03-.093.138-.116.138-.233 0-.354.045-.018.094-.03.148-.03s.084-.016.092-.04zm-1.508 1.054l-.126.252-.112.25c.024.02.042.04.056.06l.16-.284.174-.286c-.02.003-.048.002-.085-.003s-.06-.002-.067.01zm-.238.78c-.245-.065-.375-.01-.39.165l.39-.165zm-.552.597c-.01.001-.02.03-.032.087.007.043.03.06.07.055.048-.018.1-.034.16-.048s.112-.03.16-.05c-.003-.02-.01-.037-.015-.047s-.012-.026-.015-.047l-.327.048zm.032.163c-.05-.015-.1-.022-.15-.018s-.08.02-.097.048c-.015.04-.016.09-.004.152l.03.183a.79.79 0 0 1 .112-.05c.037-.014.08-.038.124-.07l.06-.06a.43.43 0 0 0 .057-.077.96.96 0 0 1-.067-.072c-.023-.027-.044-.04-.063-.035zm2.83-14.147c.068-.1.13-.18.187-.275s.043-.213-.04-.36l-.13.07-1.217 1.5-.966 1.283c-.02.026-.035.06-.046.1s-.027.075-.046.1a1.13 1.13 0 0 1-.146.311 1.09 1.09 0 0 1-.067.078.89.89 0 0 0-.067.078l-.21.363-.21.346a.95.95 0 0 1-.132.173c-.05.053-.095.11-.132.173l-.318.566-.328.62a.69.69 0 0 1 .141-.063c.04-.01.07-.03.088-.056l.6-1.025a.82.82 0 0 0 .086-.132l.986-1.27.33-.5a5.65 5.65 0 0 1 .331-.483l1.308-1.59zm-1.726 13.896c-.137-.104-.236-.155-.295-.152s-.13.054-.21.156a2.69 2.69 0 0 0-.267.357l-.244.388-.165.26a1.55 1.55 0 0 1-.186.245l-.294.302c-.104.1-.196.204-.273.316-.126.186-.264.36-.41.52s-.32.306-.516.434c-.055.03-.1.065-.137.103a.65.65 0 0 1-.119.101c.002.01.018.037.05.077l.403-.183c.135-.058.262-.124.383-.197.097-.07.182-.155.256-.255s.152-.2.236-.27c.053-.04.12-.076.2-.104s.146-.062.2-.104a1.72 1.72 0 0 0 .26-.23l.237-.26c.02-.025.037-.064.053-.117s.01-.094-.02-.123c-.036-.073-.05-.14-.04-.196a.56.56 0 0 1 .054-.167l.083-.155a.63.63 0 0 0 .064-.161c.078.112.13.18.16.205s.07.02.125-.01c.126-.04.18-.1.16-.174s-.044-.14-.076-.19l.33-.417zm-3.7-13.19c-.272.014-.4.205-.39.575l.186-.276.203-.3zm-.235 16.23c.364-.118.695-.267.995-.448s.563-.415.792-.702l.218-.264.25-.285c-.043-.116-.024-.2.058-.25a.93.93 0 0 1 .26-.111l-.006-.2c-.003-.055-.003-.1 0-.166-.157-.01-.273.05-.347.182-.09.18-.195.344-.314.494a1.24 1.24 0 0 1-.169.174c-.063.053-.113.116-.15.188a.55.55 0 0 1-.201.253l-.264.195a.42.42 0 0 0-.063.05.5.5 0 0 1-.063.051 2.17 2.17 0 0 1-1.322.702.93.93 0 0 0-.207.054l-.204.07c.007.043.018.07.03.08l.358-.01c.12 0 .236-.02.35-.057zm-.154-15.464a.59.59 0 0 0-.278.123c-.06.056-.108.118-.14.186a1.19 1.19 0 0 0-.078.21.9.9 0 0 1-.087.211c.014.01.028.015.042.02s.028.01.042.018l.5-.767zm-1.083 3.45c.022-.068.053-.126.093-.175l.12-.155a.52.52 0 0 0 .084-.182c.016-.067.002-.145-.043-.235-.01.002-.038-.005-.083-.02l-.257.73c.012.01.04.02.085.036zm-.554 1.917l.12-.265.12-.264a1.62 1.62 0 0 0 .116-.29c.025-.092.063-.19.113-.3a.31.31 0 0 1-.087-.041l-.18.157c-.06.05-.112.107-.156.172a.38.38 0 0 0-.067.213c-.001.077-.01.146-.027.207-.047.113-.07.196-.068.25s.04.104.116.153zm-.292-1.755c-.02.025-.024.057-.012.094s.015.074.008.11c.025.008.043.01.055.01s.03.002.054.01l.054-.11.054-.11.14-.46.16-.445.132-.34.152-.326c.04-.118.087-.234.14-.35l.142-.333.268-.546c-.05-.015-.088-.032-.114-.05a8.31 8.31 0 0 0-.682 1.391l-.548 1.456zm-.018 2.522c.076-.043.132-.137.166-.283a1.26 1.26 0 0 0 .01-.484 1.36 1.36 0 0 0-.124.362c-.023.123-.04.258-.052.405zm10.383-7.305a2.75 2.75 0 0 1 .1.365 1.62 1.62 0 0 1 .031.375l-.037.558-.07.562c-.005.047.002.09.02.127s.017.075 0 .112l-.068.468-.088.453c-.015.06-.018.115-.01.166l.025.16c.038.477-.03.948-.204 1.41-.016.048-.02.098-.012.148l.022.143c-.006.035-.017.078-.033.126a1.04 1.04 0 0 1-.038.213.56.56 0 0 1-.025.064.55.55 0 0 0-.025.064l-.163.31c-.054.106-.048.223.02.35a2.43 2.43 0 0 0-.196.21l-.193.227.136.032c.03.007.064.02.102.036l-.107.275a3.08 3.08 0 0 1-.107.275c.107.087.133.16.077.213s-.134.1-.233.138c.105.077.155.152.15.228a.23.23 0 0 1-.104.179c-.112.11-.18.214-.206.315s.002.226.084.376l.003.017c.002.01-.003.018-.014.02l-.168.05-.167.05.01.068.083.03c.03.012.077.026.138.04l-.178.208c-.06.072-.125.142-.196.2.07.08.13.095.182.042a.68.68 0 0 1 .156-.127c.013.01.023.02.03.03s.018.02.03.03l-.065.087c-.024.032-.053.05-.088.056a.6.6 0 0 0-.168.103c-.036.034-.058.098-.067.19s-.045.182-.108.266a2.27 2.27 0 0 0-.177.277l.145.03c.036.006.066.013.09.02.013.01.022.03.027.065l-.24.14a.61.61 0 0 0-.202.168.53.53 0 0 0-.096.23 3.16 3.16 0 0 1-.068.295l-.104.067a2.13 2.13 0 0 1-.169.094l.17.13.15.116-.338.594-.355.596.31-.046-.288.405c.06.152-.018.262-.23.328-.045.007-.09.03-.13.07a.42.42 0 0 0-.087.116l-.074.15c-.022.05-.053.094-.093.135l-.045.222-.042.24a1.29 1.29 0 0 0-.162-.028l-.142-.013a1.32 1.32 0 0 1 .015.153c.001.045.005.09.012.136.002.01 0 .02-.004.026s-.006.015-.005.027c.06.094.088.174.08.238s-.034.12-.08.167a.62.62 0 0 1-.166.119c-.065.033-.118.07-.158.1l-.185.166c-.062.055-.068.13-.018.227a.59.59 0 0 1-.135.037c-.046.007-.078.023-.098.05-.14.24-.3.45-.48.633s-.377.358-.585.527a1.26 1.26 0 0 0-.217.187c-.06.067-.154.098-.284.094-.07-.001-.136.026-.198.08a.38.38 0 0 1-.195.098l-.545.107c-.182.033-.363.034-.543.003-.17-.033-.346-.043-.53-.033a.99.99 0 0 1-.547-.134c-.09-.044-.186-.067-.29-.07s-.208-.024-.308-.066c-.54-.16-1.017-.418-1.433-.77a2.86 2.86 0 0 1-.97-1.408c-.033-.064-.06-.132-.084-.203l-.092-.254c.173.135.322.268.447.4l.362.412c.157.184.332.353.525.508l.572.467c.052.038.123.06.21.063a1.22 1.22 0 0 0 .235-.009 3.45 3.45 0 0 0 .854-.204 3.93 3.93 0 0 0 .772-.398 5.53 5.53 0 0 0 .496-.365 5.51 5.51 0 0 0 .437-.408l.458-.496.422-.508c.03-.04.055-.08.077-.123l.06-.12.17-.257a2.43 2.43 0 0 0 .154-.254l.464-.857.428-.87.43-1.077.41-1.092.19-.522.175-.52.312-1.108.278-1.102.212-1.075.175-1.087.105-1.025.088-1.022.06-1.665c.003-.058-.005-.108-.023-.152s-.032-.093-.04-.15c-.027-.02-.05-.027-.074-.023l-.567.757c-.03.04-.085.1-.165.18l-.143.15c-.045.047-.065.128-.06.242.01.068-.016.143-.08.227s-.127.143-.192.175c-.1.038-.158.096-.175.173a.73.73 0 0 1-.081.211c-.02.026-.03.054-.03.082s-.012.056-.03.082c-.175.153-.31.334-.407.543l-.31.6c-.094.152-.194.296-.302.433l-.32.435c-.076.115-.145.237-.206.367l-.2.4-.197.314-.195.33-.463.863-.236.406-.253.41-.648 1.028c-.187.304-.478.502-.873.596a.79.79 0 0 0-.188.088c-.06.037-.12.072-.186.105a.52.52 0 0 0-.133.106.22.22 0 0 1-.138.072c-.164.001-.325-.024-.485-.074s-.3-.118-.452-.2c-.064-.037-.12-.077-.168-.122a.88.88 0 0 0-.168-.122 1.35 1.35 0 0 1-.438-.512 4.98 4.98 0 0 1-.243-.611c-.022-.066-.03-.134-.022-.203l.03-.21.072-.442a2.47 2.47 0 0 0 .035-.454c.016-.198.067-.383.15-.557a2.26 2.26 0 0 0 .185-.562c.06-.216.133-.428.218-.636l.237-.622.222-.61.24-.613.58-1.242.198-.366.215-.368c.026-.06.03-.102.016-.123-.063-.106-.07-.194-.023-.264s.1-.14.16-.205l.6-.726c.02-.026.028-.044.026-.056a.79.79 0 0 1 .045-.334c.038-.098.1-.192.158-.282a2.17 2.17 0 0 1 .216-.248 1.35 1.35 0 0 0 .199-.245c.194-.26.404-.506.63-.74a4.3 4.3 0 0 1 .755-.621 1.38 1.38 0 0 1 .377-.168l.402-.12c.044-.018.097-.017.158.002s.105.04.13.058c.076.115.15.173.22.174s.138-.015.203-.048a3.31 3.31 0 0 1 .356.266.93.93 0 0 0 .363.196c.138.06.25.132.34.216l.28.278a1.91 1.91 0 0 1 .189.257c.055.1.118.18.19.273s.108.19.107.295-.04.178-.115.224l-.162.085a.26.26 0 0 1-.173.017c-.036-.006-.067-.036-.093-.1l-.07-.162-.1-.244-.096-.227c-.033-.064-.077-.1-.13-.1s-.095.012-.122.062c-.162.242-.362.436-.603.582a3.09 3.09 0 0 0-.662.539l-.767.882a4.12 4.12 0 0 0-.627.999c-.096.2-.218.406-.365.59l-.422.563c-.04.052-.07.103-.09.15l-.07.166c-.07.16-.148.31-.238.45l-.277.42c-.076.115-.126.25-.15.402a2.75 2.75 0 0 1-.107.447c-.032.097-.074.184-.127.26s-.095.164-.127.26c-.06.136-.11.27-.148.402s-.094.262-.17.387a1.29 1.29 0 0 0-.154.42c-.03.154-.113.276-.25.365-.015.017-.02.02-.032.022l-.015.02c.078.126.076.23-.005.31s-.125.174-.133.28a2.25 2.25 0 0 1-.01.277c-.01.094-.048.18-.118.26-.04.052-.052.117-.04.196s.014.165.004.258l.295-.018.258-.03c.023-.003.042-.015.056-.034l.05-.068.476-.726.473-.743.86-1.473.896-1.358a5.96 5.96 0 0 0 .343-.56c.104-.194.225-.38.36-.563l.75-1.104.8-1.075.654-.822.673-.808c.02-.026.032-.057.038-.092s.018-.072.036-.11c.016-.048.028-.102.037-.16s.03-.1.064-.096c.155-.057.314-.08.48-.07.06.003.114.018.164.044a.26.26 0 0 0 .162.028.81.81 0 0 1 .536.119l.424.307c.093.078.176.172.245.282l.202.34a1.52 1.52 0 0 1 .123.284l.09.306z"/><path d="M179.518 25.517c.052.188.05.36-.008.52a1.65 1.65 0 0 1-.277.473 1.83 1.83 0 0 1-.228.284c-.086.088-.167.183-.245.287-.08.08-.138.164-.172.25l-.115.276c-.036.144-.117.225-.243.243a.38.38 0 0 0-.136.141c-.037.063-.068.125-.094.186l-.134.27c-.046.082-.117.147-.215.196-.042.03-.07.074-.085.133-.074.127-.14.196-.195.21s-.136-.01-.24-.077c-.203-.108-.346-.276-.427-.506a1.21 1.21 0 0 1-.038-.703l.455-1.31.472-1.314c.028-.12.074-.24.136-.366.057-.158.127-.255.21-.3s.236-.04.46-.017l-.085.073-.068.07c.043.052.07.07.08.058.132-.054.25-.078.356-.07a.57.57 0 0 1 .32.142l.076.1a.18.18 0 0 1 .04.089.75.75 0 0 0 .054.122c.016.027.056.058.12.094a.54.54 0 0 1 .162.2c.042.086.063.163.062.232m-4.544 11.145c.06-.01.095-.08.102-.21a.94.94 0 0 0-.051-.366c-.2.087-.31.15-.328.186s-.004.105.047.205c.02.05.053.092.1.125s.09.052.13.06m-.286.574c.1.005.16-.006.18-.032s.018-.058-.01-.095c.007-.017.002-.028-.015-.034s-.04-.015-.063-.03c-.026.035-.044.067-.054.096l-.038.094m.015-.242c.06-.01.1-.03.12-.063s.03-.067.03-.104l.002-.11c0-.036.01-.074.03-.113-.1-.01-.163-.024-.2-.044-.038-.006-.116-.037-.235-.09l-.023.085-.02.102-.11.468-.088.5-.054.487-.05.504c-.008.026-.004.052.012.08l.048.074a.74.74 0 0 1 .085-.049c.034-.017.05-.037.046-.06a.4.4 0 0 1 .043-.259c.043-.078.05-.164.025-.256-.018-.034-.012-.08.015-.138a1.41 1.41 0 0 0 .067-.164c.08-.108.126-.175.134-.2l-.122-.135c-.036-.037-.056-.067-.06-.09a2.28 2.28 0 0 1 .084-.292 1.33 1.33 0 0 0 .068-.272.35.35 0 0 1 .076.079c.023.033.048.053.074.06M174.428 39c.007-.035 0-.072-.02-.11l-.06-.12-.046.135a.6.6 0 0 1-.049.118l.003.017-.053.722a1.92 1.92 0 0 0 .106.718c.015.01.001.046-.04.11-.04-.075-.074-.154-.1-.237s-.07-.166-.124-.25c-.02-.032-.022-.07-.01-.11s.022-.083.028-.124-.001-.078-.02-.1-.064-.06-.135-.086l.074.766.113.76c.023.055.048.1.074.137s.05.077.07.12c.103-.094.138-.18.105-.255l-.1-.23c-.01-.056-.012-.105-.006-.146s.038-.088.095-.142c.08-.068.122-.14.122-.214s-.033-.148-.1-.22c.016-.06.042-.117.08-.174s.05-.107.043-.152a.78.78 0 0 1-.076-.266c-.01-.1.004-.184.04-.28.034-.108.025-.233-.026-.376m-.5-.04l-.02.366c.034-.006.076 0 .125.018l.005-.345c-.002-.012-.015-.02-.038-.022s-.048-.008-.072-.017m2.513-8.92a1.32 1.32 0 0 1 .453.28l.376.36.092.134c.03.048.045.1.042.158l.007.39a1.51 1.51 0 0 1-.04.431 4.17 4.17 0 0 1-.265.525c-.1.165-.182.34-.248.523l-.142.515-.16.518a.9.9 0 0 1-.03.152l-.045.17a.71.71 0 0 0-.083.212c-.018.078-.05.15-.1.214-.027.132-.078.266-.15.404l-.132.236c-.043.07-.033.152.03.247.028.03.027.083-.002.157s-.072.126-.127.158c-.112.12-.13.24-.05.355.072.082.072.14 0 .173s-.12.082-.147.143c.026.02.046.03.06.035l.056.018-.086.195a1.47 1.47 0 0 0-.08.229c-.07.16-.136.35-.197.567a.59.59 0 0 0-.029.16c-.003.06.01.103.038.133.074.093.094.188.062.286-.06.078-.08.163-.067.253l-.008.175c-.005.047-.05.1-.135.16-.01.013-.01.045-.003.096a.78.78 0 0 0 .042.158c-.05.066-.08.122-.09.17s.02.108.1.178a.37.37 0 0 1-.003.096c-.006.042-.005.085.002.13l-.003.78c-.06-.003-.1-.001-.15.005a.54.54 0 0 1-.133.002c.003.023.003.037-.002.044s-.006.016-.005.027a.68.68 0 0 0 .122.043l.14.04a1.24 1.24 0 0 0 .013.31.54.54 0 0 1-.087.36c-.02.026-.024.058-.012.097s.014.07.006.095l-.008.123c-.001.035-.01.065-.03.09-.092.095-.12.18-.085.256l.11.244.07.172a.74.74 0 0 1 .056.191c.048.155-.008.215-.168.18a2.67 2.67 0 0 1-.637-.209c-.192-.093-.33-.255-.413-.486-.057-.21-.125-.42-.204-.63s-.13-.426-.155-.654l-.073-1.1c-.016-.368-.01-.738.014-1.112-.007-.196-.003-.378.013-.548l.048-.553.09-.56.088-.577.22-1.22.254-1.226.236-.945.253-.948.225-.84.19-.835a.76.76 0 0 1 .039-.093c.018-.038.038-.058.062-.06.356-.076.684-.06.985.045"/><path d="M181.1 31.3c-.017-.128-.013-.256.01-.384l.176-.762a1.23 1.23 0 0 0 .011-.385c-.07.155-.13.338-.173.547l-.087.39-.09.372c-.07.167-.02.24.15.223zm-.94 5.18a2.63 2.63 0 0 1 .175-.191c-.08-.004-.136.005-.17.027s-.035.076-.006.164zm-.215-4.03c.01-.07.025-.136.043-.197l.045-.183c.024.007.042.01.053.008s.03.001.053.008l-.09.366c-.023.003-.04.003-.052-.001s-.03-.003-.052-.001zm.877-1.147l-.038.195a.95.95 0 0 1-.055.198 2.82 2.82 0 0 1-.173.423.95.95 0 0 0-.102.446c-.012.07-.02.144-.027.22s-.02.144-.045.205a2.91 2.91 0 0 0-.223.818l-.104.833c-.016.118-.024.234-.024.348s-.036.23-.11.344c-.036.063-.058.135-.07.217l-.033.23.004.37c.006.12-.004.245-.03.375a1.81 1.81 0 0 0-.033.401c.004.137-.066.257-.207.36l.1.158.112.19c.05-.122.075-.212.078-.27l.264-1.625.16-.954.044-.213.06-.216a1.16 1.16 0 0 1 .087-.263c.038-.08.056-.166.054-.258l.01-.38c.004-.127.047-.254.128-.38.01-.013.013-.025.012-.036s.002-.023.01-.036l.013-.14.024-.176c-.03-.053-.033-.147-.008-.283s.07-.254.132-.356a.5.5 0 0 0 .083-.348 2.08 2.08 0 0 1-.021-.367c.022-.003-.001-.01-.07-.023zm-1.1 6.55l-.033-.032c-.015.04-.034.083-.06.125s-.036.07-.035.083c.07.088.082.176.04.267a.81.81 0 0 0-.079.271c.003.025.004.056.004.094s.001.07.004.094c.002.012.012.02.032.022s.035.003.045.001c.026-.03.05-.067.076-.1s.035-.076.032-.1c.005-.127.003-.247-.005-.36l-.02-.356zm-.298 1.502c.01-.002.016-.006.02-.014s.01-.012.02-.014l.053-.3a2.51 2.51 0 0 0 .038-.299c-.003-.025-.027-.072-.073-.14-.016.03-.033.052-.05.068a.13.13 0 0 0-.036.065l-.024.237-.01.234c-.007.027-.001.055.016.084l.045.078zm.318-13.805a2.74 2.74 0 0 1-.289.125c-.092.033-.188.075-.29.124l.007.064.183.07.213-.163a2.2 2.2 0 0 0 .181-.156l-.007-.064zm-.658 15.53c-.022.015-.05.024-.083.03l-.03.202c-.008.064.056.115.2.152l-.038-.192a2.02 2.02 0 0 1-.038-.192zm-.134.383l.002-.33-.017-.345.094.125a.92.92 0 0 0 .072.093c.02-.014.04-.024.063-.027l-.026-.178c-.01-.062-.026-.097-.05-.106-.058-.014-.104-.036-.136-.066a.51.51 0 0 1-.094-.124.27.27 0 0 1-.058.061c-.02.015-.03.034-.026.056.008.057.018.104.03.143a1.11 1.11 0 0 1 .029.143l.01.25a1.24 1.24 0 0 1-.008.236c-.002-.012.036.012.11.07zm.768-6.75a.74.74 0 0 0 .005.147.54.54 0 0 1 .002.13c.025.008.054.01.09.004.016-.05.023-.096.022-.143s.006-.094.022-.143l-.138.02a.61.61 0 0 0-.024-.101c-.01-.033-.02-.067-.024-.1.117-.005.23.001.34.02l-.083-.196-.053-.114.07-.123.055-.104-.19-.093.074-.324.054-.34c.013.01.03.013.054.01l-.058.426c-.008.024-.01.05-.005.08s.002.055-.006.08c.02-.026.045-.05.077-.072s.052-.046.06-.07l.123-.35.115-.4-.138.08-.12.08c-.013-.01-.02-.017-.02-.023s-.008-.013-.02-.023c.03-.04.075-.087.137-.142.02-.026.044-.056.075-.09l.075-.09a3.13 3.13 0 0 0 .088-.404l.068-.42a.36.36 0 0 0-.099-.011c-.04 0-.092-.006-.153-.02l.2-.535a.48.48 0 0 1 .105.106c.224-.23.275-.43.156-.597-.02.026-.046.048-.08.064s-.06.038-.08.064l-.037-.012.34-1.355.052-.008c.01.057.013.105.014.146s.004.084.01.13c.01-.002.02 0 .027.005s.016.006.027.005c.037-.063.07-.13.102-.198a2.21 2.21 0 0 0 .082-.212c.01-.013.005-.03-.016-.05s-.043-.028-.066-.025c-.025-.008-.08.018-.165.077-.034-.065-.052-.108-.055-.13l.2-1.11a.62.62 0 0 0 .017-.176V27.9c.01-.013.005-.027-.015-.04s-.042-.02-.064-.016c-.058.008-.1.03-.096.066-.064.126-.117.28-.16.46l-.22.877-.22.878-.272 1.12-.134.57-.137.552-.093.432-.09.388-.09.388-.248 1.5-.085.483-.068.48-.02.456a1.24 1.24 0 0 1-.076.429c-.056.17-.075.342-.054.513s.014.34-.02.508a1.38 1.38 0 0 0-.034.528c.022.183.018.363-.014.542a1.31 1.31 0 0 0-.002.505 1.14 1.14 0 0 1-.019.508c-.018.037-.014.078.01.12s.04.093.05.15a.87.87 0 0 0 .086-.134.65.65 0 0 1 .071-.115c.08.2.012.336-.207.38l.173.035.176.035a1.22 1.22 0 0 0 .097-.562c-.015-.177-.09-.337-.22-.48l.398-.373-.178-.104c-.054-.032-.052-.1.006-.2.007-.036-.006-.08-.04-.133-.07-.048-.095-.096-.078-.145s.042-.087.074-.116c-.01-.056-.014-.108-.015-.154a1.07 1.07 0 0 0-.012-.137c-.025-.008-.047-.016-.066-.025l-.085-.04c.065-.033.126-.06.182-.08s.093-.043.113-.07c.042-.1.074-.223.1-.336a3.16 3.16 0 0 1 .096-.353.61.61 0 0 0-.102.024c-.034.01-.068.02-.102.024-.004-.023-.012-.04-.025-.048a1.16 1.16 0 0 0 .111-.086c.03-.028.068-.056.1-.086-.03-.11-.05-.227-.062-.347s-.1-.202-.26-.248c.09-.036.146-.045.173-.026a.72.72 0 0 1 .071.059.56.56 0 0 0 .071.059c-.027-.1-.038-.168-.03-.204s.048-.105.127-.2c.01-.013.014-.022.013-.028s.003-.015.013-.028l.07-.47.072-.454-.045-.063c-.02.026-.04.044-.062.053s-.043.027-.062.053c-.014-.01-.023-.014-.03-.013s-.015-.003-.028-.013c.024-.073.05-.144.082-.212l.1-.215zm.72-8.83l-.13-.043a.13.13 0 0 0-.104.007l-.372.148-.37.166c-.1.04-.197.07-.293.09s-.193.05-.292.1l-.6.194-.63.18-.13.056-.15.06-.9.302-.16.052-.16.05c-.02.027-.035.057-.048.09l-.046.106c.098.033.17.043.214.03s.11-.05.193-.11c.052-.044.114-.075.188-.092l.2-.06a.68.68 0 0 1 .268-.024c.09.01.148-.04.178-.154l.556-.14c.18-.04.346-.102.497-.185a1.42 1.42 0 0 1 .591-.2c.2-.02.398-.086.59-.2.16-.097.334-.17.52-.216l.546-.148c.033-.017.073-.06.12-.127-.002-.012-.01-.022-.022-.032l-.04-.03a.43.43 0 0 0-.151.041c-.02.016-.036.033-.045.052s-.018.036-.028.05zm-4.596 1.39c-.064.026-.126.048-.187.065l-.19.052c.003.017.008.03.014.038s.01.02.014.038c.054-.025.113-.044.174-.056s.124-.032.188-.058l-.013-.077zm3.128-1.26c-.005-.034-.015-.062-.03-.083-.08.012-.144.027-.188.046l-.504.18a1.94 1.94 0 0 1-.296.088 2.03 2.03 0 0 0-.297.088l-.38.127-.374.144-.84.293-.84.3-1.178.56c-.13.066-.244.142-.343.226s-.16.164-.183.237l.948-.457 1.37-.573.672-.25.675-.233.617-.25c.2-.076.415-.144.642-.2.1-.025.18-.062.266-.1l.262-.144zm.68.912c-.073-.093-.16-.115-.264-.064l-.235.122c-.084.06-.168.1-.252.124s-.17.054-.257.09l-.2.072-.188.088c-.042.03-.08.047-.115.052-.235-.01-.452.036-.652.14s-.412.186-.637.243l-.334.102c-.1.04-.224.022-.34-.053-.016-.032-.057-.032-.122.001l-1.3.54-.457.155-.46.138-.35.12-.35.122-.217-.158c.1-.325.248-.588.474-.8s.48-.37.763-.504l.61-.308.63-.293.867-.338.87-.32 1.24-.48 1.284-.417.656-.228.654-.245c.1-.04.18-.12.208-.24l.74-2.708.33-1.037c.04-.12.097-.202.173-.242a.5.5 0 0 1 .272-.05c.094.01.19.012.3.008a3.08 3.08 0 0 1 .307.006c.024.008.048.01.07.007s.048.005.074.024l.384.168c.13.05.238.126.323.228a1.52 1.52 0 0 0 .146.151c.054.05.1.1.137.153s.06.115.073.188-.006.154-.05.24l.01.068c.112.122.147.238.106.348s-.118.22-.23.33l-.032.022-.408.996a1.44 1.44 0 0 1-.217.413c.006.115.083.16.23.14l1.187-.247a4.37 4.37 0 0 1 1.213-.078c.13.004.265-.002.408-.018s.28-.016.41-.001c.095.01.2.034.317.074s.227.096.332.167.196.155.275.253a.69.69 0 0 1 .147.333c.016.102.04.2.07.293s.043.187.034.28c-.001.07-.022.145-.062.226s-.087.137-.14.168a2.16 2.16 0 0 1-.396.154l-.404.104a4.5 4.5 0 0 1-.478.08 1.8 1.8 0 0 1-.474-.007 4.03 4.03 0 0 0-1.175.038l-1.19.16a5.03 5.03 0 0 0-.492.1l-.538.14c.003.023-.013.11-.048.26l-.108.494-.106.5-.06.295c-.013.07-.046.143-.098.214s-.067.152-.042.24c.015.02.001.046-.04.076s-.08.058-.11.086c.05.108.074.18.068.216s-.05.09-.133.16a1.19 1.19 0 0 1-.114.173c-.02.026-.044.053-.075.08s-.05.054-.058.078.002.052.03.083l.084.09c-.018.037-.027.09-.028.16s-.013.14-.037.214l-.036.223a.37.37 0 0 1-.141.221.16.16 0 0 0-.029.1c0 .04.002.072.006.095l-.156.24-.14.22c-.026.062-.024.108.003.14.052.108.074.177.067.207s-.063.088-.166.172c.06.095.08.167.06.217s-.062.093-.12.13l-.176.104c-.06.032-.102.08-.127.14a.84.84 0 0 0 .165-.007l.18-.027c-.146.115-.242.227-.29.34s-.035.213.038.307l-.125.158-.113.12a.67.67 0 0 1 .07.059.61.61 0 0 0 .07.059c.05.097.035.15-.045.163a.5.5 0 0 0-.215.084 1.1 1.1 0 0 1 .131.172c-.054.03-.104.065-.15.1s-.097.07-.15.1c-.042.03-.06.06-.055.095l.077.05.232.026c-.114.017-.175.058-.183.123a1.75 1.75 0 0 0-.01.218l-.086.584c-.008.025-.01.05-.005.08s.003.055-.005.08c.007.045.006.115-.003.208a.64.64 0 0 1-.105.007c-.036 0-.07.002-.105.007-.012.002-.025.007-.042.015s-.036.014-.06.017a1.06 1.06 0 0 0 .126.129l.123.11-.09.17c-.032.063-.055.124-.07.184a.16.16 0 0 0 .022.144l.09.134c.003.023.018.043.045.063s.036.04.028.065l-.062.286a2.74 2.74 0 0 1-.08.289c-.008.024-.034.045-.078.064l-.133.054a.39.39 0 0 1 .038.072c.01.024.028.048.055.07-.043.03-.08.053-.113.07l-.098.05c.09.135.135.27.132.402a2.17 2.17 0 0 1-.045.395 1.42 1.42 0 0 1-.049.257c-.023.08-.04.164-.05.257l-.01.52.006.5-.03.272-.032.255a.11.11 0 0 1-.053.06c-.027.015-.05.036-.07.062a1.46 1.46 0 0 0-.115.172c-.028.05-.03.12-.003.208s.03.188.01.3a2.99 2.99 0 0 0-.036.341l-.02.107c-.006.036-.007.07-.001.104a2.63 2.63 0 0 0 .094.272.59.59 0 0 1 .043.279c-.013.07-.014.14-.003.208s.01.132-.006.192c-.025.142-.015.265.03.368s.117.193.216.27l.073.05a.99.99 0 0 1 .096.081c-.174.084-.322.09-.444.015a.96.96 0 0 0-.362-.136c-.06-.014-.11-.06-.15-.133l-.11-.208c-.03-.053-.084-.094-.16-.123s-.083-.083-.025-.16l-.18-.267c-.06-.084-.102-.17-.127-.258l-.136-.603-.1-.59c-.02-.124-.025-.244-.02-.36l.017-.348a1.91 1.91 0 0 0-.004-.311 1.87 1.87 0 0 1-.004-.311l.06-1.67.2-1.847.096-.63.113-.632.46-2.476.2-.915.146-.645.15-.628.355-1.456.054-.277.078-.462.04-.43c.004-.127-.01-.19-.045-.184-.093.002-.182.01-.268.023s-.167-.01-.246-.067c-.027-.02-.063-.013-.112.017a.77.77 0 0 1-.154.075z"/><path d="M189.096 33.1c-.01-.008-.017-.017-.018-.026s-.005-.018-.01-.027-.01-.018-.01-.027a.75.75 0 0 1-.077.063.89.89 0 0 0-.077.062c.024.035.037.058.04.067l.156-.11zm-2.067 2.603l.08-.133c-.004-.018-.015-.03-.034-.037s-.035-.014-.048-.022a.38.38 0 0 0-.07.091c-.01.01.014.044.072.1zm-.27.192l.195-.143c-.054-.043-.09-.058-.113-.044s-.05.077-.08.187zm-2.142-2.11c.093-.07.14-.11.144-.126s-.033-.037-.11-.066l-.02.09a1.06 1.06 0 0 0-.016.103zm4.987-1.802l1.244-1.605c-.027-.02-.04-.034-.043-.046l-.823.884-.147.195a.31.31 0 0 1-.213.118l.475-.547.492-.55-.147-.03c-.036-.006-.074-.018-.112-.035-.062-.014-.12-.03-.178-.052a1.55 1.55 0 0 0-.177-.052.64.64 0 0 1-.144-.065c-.046-.028-.1-.05-.16-.063a.42.42 0 0 0-.121-.034c-.043-.005-.083-.016-.12-.034a4.95 4.95 0 0 1-.456-.236l-.455-.236c-.077-.035-.137-.037-.18-.008a1.39 1.39 0 0 0-.326.308l-.395.56-.39.578a1.34 1.34 0 0 1-.121.14c-.04.04-.08.093-.118.156a.75.75 0 0 1-.179.226.51.51 0 0 0-.156.257c-.02.096-.06.188-.117.278a2.11 2.11 0 0 0-.152.282l-.033.022-.127.27-.13.253a.42.42 0 0 0-.036.109c-.006.036-.018.072-.036.1l-.253.55a4.21 4.21 0 0 0-.233.563c-.086.2-.158.416-.216.62l-.178.633-.433 1.572-.038.214c-.013.07-.065.12-.156.144.005.034.016.064.032.09s.014.053-.006.08c-.06.1-.1.204-.1.308l.01.328c-.008.024-.01.05-.006.08a.17.17 0 0 1-.006.079 1.27 1.27 0 0 0-.018.401 1.73 1.73 0 0 0 .087.386c.003.023.03.077.078.162.628-1.237 1.312-2.42 2.052-3.553l2.316-3.35a1.61 1.61 0 0 1-.145.264 2.31 2.31 0 0 0-.148.248l-.254.367-.237.364c-.06.078-.102.142-.13.193-.02.026-.04.058-.056.095l-.054.112c-.01.013-.025.027-.047.042s-.03.028-.03.04c.035.076.037.122.004.138s-.078.035-.134.054c-.043.03-.074.057-.094.083l-.164.258-.162.275c-.008.024-.01.048-.007.07l.01.068-.188.166c-.01.013-.016.03-.018.055s.003.04.017.05.03.02.05.028.034.007.044-.007c.07-.01.117-.046.143-.108l.167-.24.164-.258c.018-.037.042-.075.07-.114s.047-.076.054-.112c-.005-.103.042-.15.138-.142.058-.008.098-.055.12-.14a.98.98 0 0 1 .159-.353l.472-.624c.03-.04.05-.083.06-.13l.04-.145c.02-.026.046-.047.08-.063s.06-.038.08-.064a.6.6 0 0 0 .103-.136l.083-.15c.028-.05.06-.098.093-.144s.06-.093.076-.142c.026-.06.074-.117.143-.168s.14-.07.213-.057c.126.05.22.002.28-.145-.058.008-.112.02-.164.033l-.16.05c-.002-.01-.007-.022-.014-.032s-.012-.02-.014-.033zm-4.992 3.09c.008-.015.006-.036-.007-.062l-.038-.076c-.008.016-.02.03-.033.04s-.025.023-.033.038a1.08 1.08 0 0 0-.078.248c.001.014.005.024.01.03s.01.016.01.03a1.18 1.18 0 0 0 .169-.246zm-.58 1.768c.013.01.03.014.054.01l.073-.374c-.01.002-.023.001-.035-.004s-.03-.005-.053-.001a.83.83 0 0 0-.019.184.86.86 0 0 1-.019.184zm-.227-1.153c.02-.026.03-.05.026-.073s.005-.047.026-.073a.38.38 0 0 0 .037-.119.37.37 0 0 1 .037-.119l.143-.274c.05-.083.1-.173.125-.27l.107-.496a2.44 2.44 0 0 1 .165-.486c.02-.026.026-.053.015-.08s-.006-.055.015-.08c.072-.173.146-.33.224-.47l.087-.274c-.028-.02-.043-.035-.045-.046-.02.027-.043.044-.067.053s-.046.027-.066.053l-.184.367-.182.384c-.01.025-.01.046-.01.063s-.001.032-.01.045c-.122.1-.19.207-.2.326l-.027.353c-.01.025-.012.043-.01.054s-.003.024-.013.037c-.052.066-.097.133-.136.203s-.038.148.001.236c.042.03.04.047-.01.054-.105.05-.15.12-.135.21s-.004.17-.056.235c-.023.015-.025.04-.006.08s.043.072.073.103c.002.01.016.018.04.02s.037-.002.035-.014zm.024.19c.02-.056.005-.1-.045-.134-.036-.035-.083-.05-.142-.04-.067.05-.095.1-.087.152-.008.04.022.084.09.128l-.197.167c.036.035.078.06.125.073s.088.032.12.054a1.55 1.55 0 0 1 .067-.199c.027-.064.05-.13.067-.2zm-.336.84a1.89 1.89 0 0 0 .076-.213l.073-.23c-.038.027-.077.05-.116.07a.38.38 0 0 0-.095.068c-.073.14-.126.27-.16.394-.022.035-.025.074-.01.115s.027.08.033.11c.016.01.045.01.088.006l.055-.16.054-.16zm-.045 1.032c-.058-.023-.093-.053-.105-.092s-.014-.083-.007-.132l.027-.148c.01-.05.01-.097-.002-.142-.12.17-.138.334-.058.494.01.022.028.036.052.042a.13.13 0 0 1 .064.039l.03-.06zm7.52.754c.042.12.106.215.193.282a1.65 1.65 0 0 0 .245.163l.173.095c.04.023.026.057-.037.1-.058.01-.107.033-.147.074-.093.083-.19.115-.293.095l-.3-.06c-.096-.01-.17-.038-.225-.088s-.103-.1-.147-.15a.99.99 0 0 0-.229-.173c-.083-.045-.154-.104-.212-.176a5.36 5.36 0 0 1-.521-.873c-.185-.364-.272-.738-.26-1.12a7.42 7.42 0 0 1 .123-1.142l.234-1.22.31-1.18.386-1.147c-.002-.01 0-.02.004-.027s.006-.02.002-.044l-.07.01-.284.38-.268.377c-.078.104-.144.206-.2.306s-.12.203-.2.307l-.267.377-.267.377-.442.67c-.026.062-.052.118-.08.168s-.06.102-.1.153c-.02.026-.046.04-.08.046l-.07.01c-.014.06-.02.1-.02.15s-.01.073-.03.1l-.314.53-.33.534-.015.02c0 .15-.036.282-.106.396l-.203.34a3.47 3.47 0 0 1-.232.38l-.234.364c-.066.102-.123.21-.17.328s-.1.22-.19.313c-.083.07-.132.155-.145.255s-.07.175-.168.224c-.023.003-.042.015-.056.035s-.014.04.001.06c.035.076.032.134-.01.174a1.52 1.52 0 0 0-.134.158c-.13.146-.242.33-.337.552-.082.15-.203.243-.36.278s-.31 0-.456-.105c-.09-.056-.167-.116-.23-.182a.59.59 0 0 1-.137-.265c-.002-.01-.016-.026-.042-.046-.135-.038-.245-.1-.333-.22l-.245-.335-.096-.167c-.033-.058-.06-.115-.08-.17-.2-.535-.262-1.096-.19-1.684l.1-.83.147-.817c.006-.035.016-.065.03-.09a.45.45 0 0 0 .033-.074 1.22 1.22 0 0 0 .028-.16 1.14 1.14 0 0 1 .028-.16l.078-.297.094-.3.134-.504.283-.786.264-.683.265-.68.612-1.278.394-.75.446-.758c.103-.165.217-.323.34-.474l.363-.443c.34.007.652.082.932.225l.825.448.425.248.428.265c.062.025.114.055.154.09l.14.11.957.62c.027.02.06.037.096.055a1.12 1.12 0 0 0 .131.05.67.67 0 0 0-.13.071l.008.05c.062.025.103.025.123-.001l.204-.16.204-.16c.04-.052.077-.07.115-.052.073.013.155.015.247.007s.16.048.202.17c.015.02.046.034.094.038s.1.015.128.032a.52.52 0 0 0 .102.036.56.56 0 0 1 .103.036c.024.008.045.008.06 0s.037-.003.064.016l.28.215a2.42 2.42 0 0 1 .262.217c.07.08.103.196.097.345s-.05.26-.134.328c-.03.04-.043.064-.04.075-.018.037-.027.072-.027.107s-.01.064-.03.1c-.135.193-.232.398-.292.614-.014.06-.046.122-.094.187s-.092.13-.13.192l-.13.296-.113.293-.187.556c-.06.187-.146.365-.26.532a.67.67 0 0 0-.108.215l-.068.244c-.058.158-.1.31-.124.45l-.025.237c-.006.076-.02.15-.045.223-.014.06-.035.118-.06.173s-.023.116.01.18l-.012.036c-.118.075-.162.166-.134.27a.64.64 0 0 1 .011.301 1.09 1.09 0 0 1-.067.191c-.03.068-.052.138-.065.21l-.018.513a4.72 4.72 0 0 0 .017.508l.05.26.06.224z"/><path d="M196.495 29.76c.128-.128.193-.208.195-.242s-.047-.08-.144-.142c-.014.068-.022.132-.025.192a1.47 1.47 0 0 1-.026.192zm-.39.96c.132-.017.238-.116.318-.297s.093-.337.04-.47l-.177.393-.18.374zm.195.026c-.013-.01-.022-.014-.027-.013s-.015-.003-.027-.013l-.08.14c-.027.044-.047.095-.06.154.002.01.012.024.03.038s.035.03.05.052c.018-.025.038-.043.06-.052s.035-.025.043-.05l.012-.257zm-.147 1.395c.142-.034.18-.124.118-.27-.05.02-.104.038-.162.053s-.124.04-.198.078c.004.026.005.058.005.097l-.006.156c.048-.033.09-.06.128-.077s.075-.03.114-.036zm-.294.482l.125-.148.122-.165-.073-.044c-.033-.02-.06-.016-.085.01l-.1.11-.1.11c-.02.05-.014.084.02.104.018.02.042.033.072.035s.043-.002.04-.014zm-.333-2.44c-.007.026-.007.05.002.074a.33.33 0 0 1 .018.07c.01-.002.02 0 .025.005s.015.006.025.005c.006-.038.018-.067.037-.09s.04-.04.065-.057.044-.038.056-.065.01-.07-.01-.128c-.015-.034-.013-.08.006-.14a.59.59 0 0 1 .056-.13c.1-.053.122-.116.096-.192s-.027-.146-.004-.212c.007-.026.001-.05-.017-.07s-.036-.043-.05-.066l-.08.125c-.007.026-.01.058-.012.095s-.01.07-.027.097l-.1.34-.085.338zm.304 1.18l.147-.43.124-.443c.01-.023.004-.05-.014-.08s-.043-.054-.072-.072l-.058.007c-.038.005-.055.018-.052.04l-.155.65c-.103.013-.18.001-.232-.036s-.067-.1-.044-.188c.02-.1-.017-.165-.11-.164-.018.045-.037.085-.056.12s-.04.075-.056.12c-.016.056-.036.11-.06.16a1.13 1.13 0 0 0-.059.161.28.28 0 0 0 .013.128c.014.04.026.088.036.14.1.03.182.01.215-.06s.084-.13.153-.18a.71.71 0 0 1 .079.111c.02.035.047.078.082.127a.29.29 0 0 1 .068-.057c.024-.013.04-.032.05-.054zm-.727 2.235c-.004-.016-.003-.03.001-.038s.004-.02.001-.038c-.01-.04-.028-.077-.058-.107-.002-.008-.017-.01-.046-.008s-.042.01-.04.017a.33.33 0 0 0-.021.065c-.006.026-.001.05.016.074.015.015.064.027.148.034zm.327-1.37a1.36 1.36 0 0 1 .043-.206l.048-.175-.038-.027-.117.113-.13.13c-.003-.02-.013-.043-.028-.068a.19.19 0 0 1-.028-.068l-.07-.438c-.085.034-.12.097-.104.19.005.03-.007.065-.035.1l-.07.1a.36.36 0 0 1-.05.055.4.4 0 0 0-.05.055c.002.01.01.02.02.03.046.004.112 0 .2-.013l.04.25c-.024-.007-.046-.023-.067-.046s-.044-.044-.07-.06-.053-.028-.08-.033-.064.01-.103.043c.03.052.056.1.074.15s.044.098.074.15c.234-.012.36-.1.375-.294.025.018.05.03.074.037a.93.93 0 0 1 .09.035zm-.67 6.855l.178-.016-.026-.1c-.034.03-.062.046-.084.05s-.05.02-.084.05l.017.014zm-.038-8.935a.53.53 0 0 1 .021.177 2.06 2.06 0 0 1-.02.27 2.57 2.57 0 0 1-.056.287 1.64 1.64 0 0 1-.071.223c-.02.004-.035 0-.047-.01l.09-.455.085-.492zm-.173.985l-.13.664c-.044.22-.1.436-.173.652-.016-.01-.03-.014-.044-.012s-.028-.002-.044-.012l.16-.66.16-.66c.015.01.027.014.034.013s.018.004.034.013zm-.25 1.702l-.065.38-.074-.024.06-.363.057-.38.074.024-.05.362zm5.573-10.655c.055.05.09.114.102.192a1.66 1.66 0 0 1 .02.239c.023.227-.003.44-.078.64s-.188.393-.338.575c-.03.04-.062.095-.098.17a1.26 1.26 0 0 0-.115.232c-.03.08-.094.138-.195.175-.024.004-.04.018-.047.04s-.022.05-.04.075l-.202.418-.184.415c-.01.013-.014.028-.01.045s0 .038-.008.062l-.02.106c-.006.036-.02.06-.042.075-.175.094-.272.218-.3.37l-.065.44c-.014.06-.027.1-.04.092-.08.104-.165.197-.26.28-.01.013-.014.022-.014.028s-.004.015-.013.028l-.105.352-.103.368c-.008.024-.023.047-.043.067a.6.6 0 0 0-.06.069c-.056.1-.09.18-.105.24-.018.037-.024.073-.02.106s-.002.063-.022.09l-.197.564a.31.31 0 0 0-.016.071c-.003.024-.01.036-.02.038-.167.07-.17.163-.01.277-.066.033-.106.065-.12.095s-.02.08-.02.15c.012.08-.005.16-.052.24l-.124.234a.48.48 0 0 0-.038.1l-.02.098c-.006.036-.01.073-.01.114s-.008.085-.024.133c-.026.06-.056.115-.09.16s-.033.11.004.198c.032.053.024.117-.025.193s-.086.15-.11.223l-.04.16-.04.16c-.014.07-.047.128-.102.17a1.21 1.21 0 0 1-.078.089l-.11.11c.038.018.073.03.103.036l.12.034c-.03.028-.063.052-.095.074a.32.32 0 0 0-.078.072c.03.042.04.103.03.185s-.043.144-.096.186c-.05.054-.075.126-.073.218s.037.16.104.21l-.066.208c-.02.066-.042.13-.068.19a.86.86 0 0 1-.221.067c-.07.01-.132.03-.186.062-.023.004-.04.023-.053.06s-.01.06.002.07c.027.02.053.033.078.04l.075.024c.023-.003.048-.016.074-.037s.064-.03.112-.025c-.054.11-.1.228-.14.35.01.056.012.113.01.17s-.055.106-.156.144c.052.027.104.06.158.098-.024.072-.05.214-.076.425l-.063.734-.05.878-.028.85.014.662c.01.182.03.29.06.32l.248 1.36-.032.022.033.1a.89.89 0 0 0 .049.2l.105.218a1.31 1.31 0 0 1 .083.246c.02.083.03.154.033.21s-.013.088-.048.093l-.242.001c-.078 0-.14-.043-.19-.127-.003-.023-.017-.032-.04-.028-.225-.06-.407-.173-.548-.342a6.37 6.37 0 0 1-.399-.537l-.204-.384-.017.002c-.005-.034-.015-.055-.028-.065-.02-.043-.026-.088-.02-.135l.014-.14c-.083.035-.13.013-.143-.065s-.028-.145-.048-.2l-.23-1.07a7.52 7.52 0 0 1-.108-1.088l-.027-.67.01-.657.048-.852.05-.836.07-.01.032.202a1.2 1.2 0 0 1 .014.205l-.026.228-.024.228-.026.436-.01.432-.022 1.176a.79.79 0 0 0 .008.163l.025.16-.014.14a.55.55 0 0 0 .004.137.25.25 0 0 0 .039.098c.02.03.04.063.054.096l.06-.01-.01-.86.07-.01.07.455a.76.76 0 0 1 .008.111.76.76 0 0 0 .008.111 1.61 1.61 0 0 0 .035.167c.015.055-.003.115-.052.18-.022.015-.026.062-.014.14l.184.836-.202-.04-.044.058.15.1.17.113c-.043.03-.08.05-.107.06s-.064.03-.107.06c.1.032.17.073.207.125s.05.12.04.2c.004.022.02.046.047.07s.055.046.082.066c.008-.024.02-.052.032-.082s.018-.057.014-.08l-.18-.802a.3.3 0 0 1 .001-.104.27.27 0 0 0 .004-.087c.006-.036.004-.07-.007-.102a.49.49 0 0 1-.022-.083.59.59 0 0 1-.007-.102.63.63 0 0 0-.007-.102l-.05-.484a4.38 4.38 0 0 1-.031-.487l.034-.298c.015-.094.02-.193.016-.295l-.007-.387-.015-.438c.046.005.094.003.143-.004a.82.82 0 0 1 .16-.006c.006-.035.006-.07.001-.104a.5.5 0 0 1-.002-.12c-.01.002-.02 0-.026-.005s-.015-.007-.026-.005a.41.41 0 0 1-.05.059.42.42 0 0 0-.05.059.58.58 0 0 1-.092-.375c.015-.123.07-.192.17-.206l.053.337.035-.005a1.85 1.85 0 0 1 .053-.206c.02-.066.037-.146.047-.24l-.34-.054c.018-.037.05-.056.098-.057l.137-.003c.044-.001.076-.014.097-.04s.012-.082-.026-.168l.107-.085c.04-.03.085-.058.14-.09a.71.71 0 0 1-.147-.027c-.084.07-.162.085-.233.045s-.144-.064-.217-.075l-.11.2c.013.01.026.013.037.012a1.17 1.17 0 0 0-.028.159l-.01.157c-.008.024-.012.054-.013.088s-.005.064-.013.088l-.032.522-.056.37a3.27 3.27 0 0 0-.039.351c-.003.058.005.11.025.16s.033.1.042.157l-.063.165c-.057-.06-.09-.113-.096-.158l-.003-.474.014-.477.055-.62.072-.62.004-.148c-.001-.045.007-.09.023-.14.008-.024.023-.044.044-.058a.28.28 0 0 0 .062-.061c.013.01.023.014.03.013s.015.004.03.013a2.73 2.73 0 0 0-.023.193c.096.01.162.01.197.006l.057-.432c.075.024.167.046.277.065.16-.118.112-.27-.142-.454-.008.024-.018.04-.028.047s-.015.017-.014.028c.014.1-.004.147-.053.17s-.11.03-.184.02c-.132-.004-.185-.082-.16-.235l.28-1.06a.18.18 0 0 0 .019-.106l-.01-.067a.78.78 0 0 1 .137-.037c.035-.005.07-.016.102-.032-.027-.02-.052-.044-.074-.076l-.08-.11c.03-.04.046-.087.05-.145l.008-.173c.003-.058.012-.11.028-.16s.05-.094.104-.136l.027-.28c.01-.093.024-.187.045-.283l.132-.407.13-.425c.024-.072.042-.147.054-.223l.034-.238c.036-.074.076-.12.12-.14l-.094.428c.01-.002.02 0 .027.005s.022.006.045.002c.008-.024.017-.046.026-.064s.023-.04.043-.067c.014-.06.035-.12.06-.18a1.15 1.15 0 0 0 .061-.181c.006-.036.004-.093-.01-.17l-.14.02-.04-.03a.62.62 0 0 0 .11-.094c.03-.033.062-.063.094-.09a.61.61 0 0 0 .107-.137c-.038-.006-.097-.03-.177-.078a1.71 1.71 0 0 0 .099-.247c.028-.1.066-.185.11-.284.028.02.047.03.06.035a.25.25 0 0 1 .06.034c-.04-.11-.067-.214-.077-.316s.066-.182.228-.24a.35.35 0 0 1-.097-.279c.006-.115.058-.313.157-.592-.03.04-.066.076-.107.11s-.07.077-.087.125l-.258.797-.256.814c-.034.086-.072.163-.115.233a1.04 1.04 0 0 0-.1.213c-.042.1-.073.218-.092.324s-.044.213-.074.322l-.054.11a.37.37 0 0 0-.034.125 1.52 1.52 0 0 0-.067.312 3.93 3.93 0 0 1-.059.362c-.02-.054-.04-.094-.063-.12s-.03-.05-.02-.075l.065-.268.067-.252.203-.754.22-.757.227-.715.244-.717.402-1.19.405-1.172.415-.992.455-.963c.042-.1.104-.205.187-.286s.177-.123.283-.128c.083-.001.173-.014.27-.04s.19.013.276.115c.028.03.075.044.14.04a.69.69 0 0 1 .189.015l.518.183c.17.067.314.167.43.3z"/></g><g fill="#41294a"><path d="M40.96 20.287l-.01-.007L52.284 1h3.042L43.96 20.365l-3.042-.001z"/><path d="M40.96 20.287l-.01-.007L52.284 1h3.042L43.96 20.365l-3.042-.001z" class="B C"/><path d="M43.838 20.366l-1.492 2.683-2.986-.001 1.492-2.683z"/><path d="M43.838 20.366l-1.492 2.683-2.986-.001 1.492-2.683z" class="B C"/><path d="M40.917 20.288l-.045.077-3.02-.001v-.082L28.066 3.66l1.73-2.275 11.11 18.898z"/><path d="M40.917 20.288l-.045.077-3.02-.001v-.082L28.066 3.66l1.73-2.275 11.11 18.898z" class="B C"/><use xlink:href="#B"/><use xlink:href="#B" class="B C"/><path d="M29.758 1l.06.1-1.558 2.584L26.703 1.1l.06-.1z"/><path d="M29.758 1l.06.1-1.558 2.584L26.703 1.1l.06-.1z" class="B C"/><path d="M26.526 1.383L28.26 3.66l-9.795 16.624v.08l-3-.001-.047-.08.001-.001z"/><path d="M26.526 1.383L28.26 3.66l-9.795 16.624v.08l-3-.001-.047-.08.001-.001z" class="B C"/><path d="M15.28 20.366l1.492 2.683-2.986-.001-1.492-2.683z"/><path d="M15.28 20.366l1.492 2.683-2.986-.001-1.492-2.683z" class="B C"/><path d="M15.362 20.285l.047.08-3.04-.001L1 1h3.04l11.324 19.283z"/><path d="M15.362 20.285l.047.08-3.04-.001L1 1h3.04l11.324 19.283z" class="B C"/><path d="M62.14 4.835h4.228l2.333 11.584L71.6 4.835h4.343l2.772 11.584L81.06 4.835h4.25l-4.228 15.914h-4.782l-2.587-10.473-2.68 10.473h-4.782L62.14 4.835zM93.25 17.68c1.433 0 2.773-1.024 2.773-3.164 0-2.162-1.316-3.163-2.726-3.163-1.457 0-2.726 1-2.726 3.163 0 2.14 1.222 3.164 2.68 3.164zm-.097 3.26c-3.8 0-6.672-2.5-6.672-6.52s2.942-6.52 6.718-6.52c3.8 0 6.718 2.498 6.718 6.52s-2.965 6.52-6.764 6.52zm8.906-.192V3.876h3.894v16.872h-3.894zm7.3-9.464h-1.45v-3.23h1.45V7.69c0-3.322 2.103-4.96 6.075-4.755v3.3c-1.542-.09-2.08.364-2.08 1.706v.114h2.15v3.23h-2.15v9.464h-3.996v-9.464zm14.604.07c-1.475 0-2.812 1.123-2.812 3.164s1.337 3.164 2.812 3.164c1.498 0 2.835-1.146 2.835-3.187s-1.337-3.14-2.835-3.14zm1.23-3.45c3.17 0 5.693 2.51 5.693 6.525s-2.522 6.57-5.693 6.57c-1.898 0-3.263-.9-3.98-1.962v7.848h-3.957v-18.8h3.957v1.802c.717-1.118 2.083-1.985 3.98-1.985zm13.773 3.45c-1.48 0-2.823 1.1-2.823 3.14s1.342 3.187 2.823 3.187c1.504 0 2.823-1.123 2.823-3.164s-1.32-3.164-2.823-3.164zm-1.22-3.45c1.92 0 3.286.863 3.98 1.976V8.084h3.957v12.674h-3.957v-1.794c-.717 1.113-2.083 1.976-4.003 1.976-3.147 0-5.67-2.544-5.67-6.542s2.522-6.496 5.693-6.496zm16.352 0c3.233 0 5.52 1.75 6.2 4.77h-4.203c-.323-.886-.97-1.454-2.055-1.454-1.41 0-2.38 1.1-2.38 3.203s.97 3.203 2.38 3.203c1.085 0 1.71-.522 2.055-1.454h4.203c-.67 2.93-2.956 4.77-6.2 4.77-3.788 0-6.467-2.5-6.467-6.52 0-3.998 2.68-6.52 6.467-6.52zm8.332-4.026h3.974V13.2l3.927-5.176h4.904l-5.39 6.384 5.438 6.338h-4.927l-3.95-5.335v5.335h-3.974V3.876z"/></g></g></svg>